<?xml version="1.0" encoding="UTF-8"?><svg id="Layer_1" xmlns="http://www.w3.org/2000/svg" viewBox="0 0 360 360"><defs><style>.cls-1{fill:#0a3023;}</style></defs><path class="cls-1" d="M356.02,121.6l.18-117.4c-64.84-.1-117.48,52.38-117.57,117.22l117.4.18Z"/><path class="cls-1" d="M238.8,4.03c-64.84-.1-117.47,52.38-117.57,117.22h0s117.4.18,117.4.18l.18-117.4Z"/><path class="cls-1" d="M238.27,356.21l117.4.18c.1-64.84-52.38-117.48-117.22-117.57l-.18,117.4Z"/><path class="cls-1" d="M238.45,238.82l.18-117.4c64.83.1,117.32,52.74,117.22,117.57l-117.4-.18Z"/><path class="cls-1" d="M3.66,238.47l-.18,117.4c64.84.1,117.47-52.38,117.57-117.22l-117.4-.18Z"/><path class="cls-1" d="M121.05,238.64l117.4.18c-.1,64.84-52.74,117.32-117.57,117.22l.18-117.4Z"/><path class="cls-1" d="M121.4,3.85l-117.4-.18c-.1,64.84,52.38,117.48,117.22,117.57l.18-117.4Z"/><path class="cls-1" d="M121.23,121.25l-.18,117.4c-64.84-.1-117.32-52.74-117.22-117.57l117.4.18Z"/></svg>